<svg id="Component_293_2" data-name="Component 293 – 2" xmlns="http://www.w3.org/2000/svg" xmlns:xlink="http://www.w3.org/1999/xlink" width="30" height="30" viewBox="0 0 30 30">
  <defs>
    <clipPath id="clip-path">
      <rect id="Mask" width="20" height="20" rx="5" fill="#d8d8d8"/>
    </clipPath>
    <clipPath id="clip-path-2">
      <rect id="Rectangle_5537" data-name="Rectangle 5537" width="20" height="20" fill="#fff" stroke="#707070" stroke-width="1"/>
    </clipPath>
  </defs>
  <g id="Group_21371" data-name="Group 21371" transform="translate(0 0)">
    <g id="Rectangle_5538" data-name="Rectangle 5538" transform="translate(0 0)" fill="#fff" stroke="#707070" stroke-width="1" opacity="0">
      <rect width="30" height="30" stroke="none"/>
      <rect x="0.5" y="0.5" width="29" height="29" fill="none"/>
    </g>
    <path id="Subtraction_8" data-name="Subtraction 8" d="M-75.409,27a.938.938,0,0,1-.57-.191l-2.553-1.929c-.6-.453-1.187-.938-1.75-1.441h2.975l1.9,1.431,1.894-1.431h2.976c-.563.507-1.151.991-1.75,1.441l-2.554,1.929a.947.947,0,0,1-.563.191Zm-3.712-8.75h-1.639a23.122,23.122,0,0,1-3.208-5.407,23.223,23.223,0,0,1-1.738-10.9.627.627,0,0,1,.263-.462.627.627,0,0,1,.364-.117.627.627,0,0,1,.159.021,14.028,14.028,0,0,0,3.537.453A14.173,14.173,0,0,0-75.667.625.632.632,0,0,1-75.41.571a.628.628,0,0,1,.256.054,14.18,14.18,0,0,0,5.717,1.217A14.032,14.032,0,0,0-65.9,1.389a.622.622,0,0,1,.16-.021.624.624,0,0,1,.364.117.628.628,0,0,1,.264.462A23.233,23.233,0,0,1-66.85,12.84a23.116,23.116,0,0,1-3.205,5.41H-71.7a21.84,21.84,0,0,0,3.686-5.9,22.028,22.028,0,0,0,1.69-9.572,15.328,15.328,0,0,1-3.116.32,15.471,15.471,0,0,1-5.972-1.213A15.479,15.479,0,0,1-81.383,3.1a15.331,15.331,0,0,1-3.12-.32,22.039,22.039,0,0,0,1.693,9.571,21.833,21.833,0,0,0,3.687,5.9Zm-3.306,0h-2.295A26.225,26.225,0,0,1-88.6,8.443a26.182,26.182,0,0,1,.321-10.717.948.948,0,0,1,.55-.649A.937.937,0,0,1-87.355-3a.947.947,0,0,1,.479.13,10.845,10.845,0,0,0,5.494,1.5A10.845,10.845,0,0,0-75.888-2.87.945.945,0,0,1-75.409-3a.948.948,0,0,1,.479.131,10.842,10.842,0,0,0,5.493,1.5,10.843,10.843,0,0,0,5.5-1.5A.951.951,0,0,1-63.462-3a.937.937,0,0,1,.37.076.948.948,0,0,1,.549.649A26.183,26.183,0,0,1-62.219,8.44,26.225,26.225,0,0,1-66.1,18.25h-2.3A24.334,24.334,0,0,0-64.323,9.3a24.288,24.288,0,0,0,.2-9.942A12.644,12.644,0,0,1-69.435.517,12.768,12.768,0,0,1-75.409-.971,12.774,12.774,0,0,1-81.383.517,12.642,12.642,0,0,1-86.691-.642,24.293,24.293,0,0,0-86.5,9.3a24.333,24.333,0,0,0,4.069,8.95Z" transform="translate(90.41 3)"/>
    <g id="Group" transform="translate(4.743 3.333)" clip-path="url(#clip-path)">
      <g id="Mask_Group_753" data-name="Mask Group 753" clip-path="url(#clip-path-2)">
        <g id="Group_3753" data-name="Group 3753" transform="translate(0 4.473) rotate(-16.024)">
          <rect id="Rectangle_2206" data-name="Rectangle 2206" width="16.225" height="16.013" opacity="0"/>
          <path id="Path_1477" data-name="Path 1477" d="M8.175,7.454a3.3,3.3,0,1,1-.617-4.53l1.426-1.69A5.509,5.509,0,1,0,10,8.7Z" transform="matrix(0.991, 0.136, -0.136, 0.991, 3.91, 1.759)"/>
        </g>
      </g>
    </g>
    <path id="Subtraction_9" data-name="Subtraction 9" d="M-64.416,7H-83.583a.678.678,0,0,1-.739-.591V4.061h-3.936a.8.8,0,0,1-.628-.281.488.488,0,0,1-.033-.575L-87.25.531l-1.672-2.675a.493.493,0,0,1,.033-.575A.791.791,0,0,1-88.261-3h4.178v1.182h-2.978l1.3,2.083a.486.486,0,0,1,0,.528l-1.3,2.083h2.741V.531a.534.534,0,0,1,.216-.417L-83.968,0h19.9V-.034l.182.146a.537.537,0,0,1,.216.417v2.35h2.741l-1.3-2.083a.488.488,0,0,1,0-.528l1.3-2.083h-3.138V-3h4.333a.792.792,0,0,1,.629.28.493.493,0,0,1,.033.575L-60.75.531-59.078,3.2a.488.488,0,0,1-.033.575.8.8,0,0,1-.628.281h-3.936V6.409A.678.678,0,0,1-64.416,7ZM-82.847,1.122v4.7h17.7v-4.7Z" transform="translate(89 19.667)"/>
    <path id="Subtraction_10" data-name="Subtraction 10" d="M-70.667,2.833H-89V-3h18.333ZM-79.25-1.622c-.973,0-1.578.71-1.578,1.853s.6,1.868,1.578,1.868,1.575-.717,1.575-1.871S-78.275-1.622-79.25-1.622Zm-3.523,0c-.973,0-1.577.71-1.577,1.853s.6,1.868,1.577,1.868S-81.2,1.382-81.2.228s-.6-1.85-1.572-1.85Zm9.2,1.667a.88.88,0,0,0-.686.289.88.88,0,0,0-.219.711.894.894,0,0,0,.22.715.894.894,0,0,0,.686.3.9.9,0,0,0,.687-.3.9.9,0,0,0,.219-.717.879.879,0,0,0-.219-.709.879.879,0,0,0-.683-.289ZM-74-1.583a.348.348,0,0,0-.333.2l-.982,1.5-.958,1.443a.372.372,0,0,0-.073.225.3.3,0,0,0,.1.205.3.3,0,0,0,.217.073.333.333,0,0,0,.3-.191l1.025-1.56.923-1.394a.384.384,0,0,0,.078-.214.287.287,0,0,0-.09-.208A.287.287,0,0,0-74-1.583ZM-86.06-.637h.019V1.551a.482.482,0,0,0,.142.373.482.482,0,0,0,.375.137.482.482,0,0,0,.375-.137.482.482,0,0,0,.142-.373V-1.006a.543.543,0,0,0-.163-.427.543.543,0,0,0-.431-.152.956.956,0,0,0-.583.156l-.64.427a.4.4,0,0,0-.195.354.333.333,0,0,0,.095.249.333.333,0,0,0,.247.1.367.367,0,0,0,.242-.083l.373-.258Zm9.609-.947a.888.888,0,0,0-.683.292.888.888,0,0,0-.223.708.894.894,0,0,0,.219.715.894.894,0,0,0,.686.3.9.9,0,0,0,.687-.3.9.9,0,0,0,.22-.715.879.879,0,0,0-.219-.712A.879.879,0,0,0-76.451-1.583Zm2.883,3.133c-.136,0-.208-.172-.208-.5s.068-.488.208-.488.207.16.207.488-.069.5-.207.5ZM-79.25,1.3c-.333,0-.522-.381-.522-1.072s.181-1.057.522-1.057.521.365.521,1.057S-78.911,1.3-79.25,1.3Zm-3.523,0C-83.106,1.3-83.3.921-83.3.23s.181-1.057.522-1.057.522.365.522,1.057S-82.429,1.3-82.769,1.3Zm6.322-1.385c-.136,0-.207-.173-.207-.5s.068-.488.207-.488.208.16.208.488S-76.313-.083-76.451-.083Z" transform="translate(94.833 23)"/>
    <path id="Path_45484" data-name="Path 45484" d="M1739.607,726.891h3.618l1.4,2.78-.483,3.058H1739.2l1.677-3.289Z" transform="translate(-1738.2 -709.482)"/>
    <path id="Path_45485" data-name="Path 45485" d="M1744.222,726.891H1740.6l-1.4,2.78.483,3.058h4.937l-1.676-3.289Z" transform="translate(-1715.701 -709.482)"/>
  </g>
</svg>
